<svg width="800px" height="800px" viewBox="0 0 1024 1024" class="icon" version="1.1" xmlns="http://www.w3.org/2000/svg">
<g id="SVGRepo_bgCarrier" stroke-width="0"/>
<g id="SVGRepo_tracerCarrier" stroke-linecap="round" stroke-linejoin="round"/>
<g id="SVGRepo_iconCarrier">
<circle cx="512" cy="512" r="480" fill="#3a8f46"/>
<circle cx="320" cy="280" r="60" fill="#ffffff" opacity="0.9"/>
<circle cx="320" cy="280" r="30" fill="#3a8f46"/>
<circle cx="704" cy="280" r="60" fill="#ffffff" opacity="0.9"/>
<circle cx="704" cy="280" r="30" fill="#3a8f46"/>
<circle cx="220" cy="480" r="50" fill="#ffffff" opacity="0.9"/>
<circle cx="220" cy="480" r="25" fill="#FFBC00"/>
<circle cx="804" cy="480" r="50" fill="#ffffff" opacity="0.9"/>
<circle cx="804" cy="480" r="25" fill="#FFBC00"/>
<path d="M320 280 L512 512" stroke="#ffffff" stroke-width="12" opacity="0.7"/>
<path d="M704 280 L512 512" stroke="#ffffff" stroke-width="12" opacity="0.7"/>
<path d="M220 480 L512 512" stroke="#ffffff" stroke-width="12" opacity="0.7"/>
<path d="M804 480 L512 512" stroke="#ffffff" stroke-width="12" opacity="0.7"/>
<path d="M412 512 h200 v160 c0 44-89 80-100 80 s-100-36-100-80 z" fill="#FFBC00"/>
<path d="M412 512 h200 v40 h-200 z" fill="#FFBC00"/>
<path d="M512 420 c0-40 30-80 30-120 c-20 20-60 60-60 120" fill="#ffffff"/>
<path d="M512 420 c0-40-30-80-30-120 c20 20 60 60 60 120" fill="#ffffff"/>
<ellipse cx="512" cy="300" rx="20" ry="30" fill="#ffffff"/>
<path d="M480 640 l32 40 l32-40" stroke="#3a8f46" stroke-width="16" fill="none" stroke-linecap="round" stroke-linejoin="round"/>
<line x1="512" y1="580" x2="512" y2="680" stroke="#3a8f46" stroke-width="16" stroke-linecap="round"/>
</g>
</svg>
